<svg width="22" height="22" viewBox="0 0 22 22" fill="none" xmlns="http://www.w3.org/2000/svg">
<g clip-path="url(#clip0_12_2)">
<path d="M21.6207 19.2561L15.5897 13.2386C15.6437 13.1574 15.6845 13.0218 15.725 12.8457C16.362 11.775 16.7561 10.6095 16.8772 9.37606C16.905 9.09153 16.9177 8.79316 16.9177 8.50867C16.9177 7.5736 16.7616 6.63622 16.4435 5.71675C16.0298 4.52173 15.3616 3.46469 14.4511 2.54521C11.2006 -0.737038 5.72811 -0.729525 2.4837 2.54521C1.40462 3.63469 0.672254 4.90458 0.288007 6.35371C-0.100302 7.81876 -0.091351 9.25405 0.288007 10.7043C0.667653 12.1546 1.38988 13.4245 2.4837 14.5128C4.11412 16.1351 6.25144 16.9794 8.46072 16.9794C10.1548 16.9794 11.6947 16.4896 13.1227 15.597L13.3396 15.4614L19.3979 21.5061C19.6286 21.7363 19.8723 21.8722 20.1028 21.8991C20.1568 21.9127 20.1976 21.9153 20.2381 21.9127C20.4012 21.902 20.5506 21.8601 20.6718 21.7907C20.8354 21.6973 21.0107 21.5602 21.2006 21.3706L21.4715 21.0993C21.6612 20.9097 21.7983 20.7342 21.8917 20.5708C21.9611 20.4496 22.0001 20.2863 22.0001 20.0827V19.9743C22.0001 19.7439 21.8581 19.4932 21.6207 19.2561ZM15.1828 10.3247C14.8648 11.5156 14.2613 12.5609 13.3667 13.4555C12.0656 14.7565 10.3172 15.4884 8.46065 15.4884C6.63101 15.4884 4.89387 14.7447 3.54072 13.4555C0.882118 10.9226 0.893118 6.1872 3.54072 3.62947C4.87798 2.3379 6.61742 1.58296 8.46065 1.58296C10.3987 1.58296 12.0156 2.26996 13.3667 3.62947C14.2518 4.52001 14.8711 5.55398 15.1828 6.74665C15.4945 7.93933 15.5018 9.13032 15.1828 10.3247Z" fill="white"/>
</g>
<defs>
<clipPath id="clip0_12_2">
<rect width="22" height="22" fill="white"/>
</clipPath>
</defs>
</svg>
