<svg width="22" height="22" viewBox="0 0 22 22" fill="none" xmlns="http://www.w3.org/2000/svg">
<g clip-path="url(#clip0_12_20)">
<path d="M15.0333 10.2667C15.2365 10.2667 15.4 10.4302 15.4 10.6333V17.2333C15.4 17.4365 15.2365 17.6 15.0333 17.6C14.8302 17.6 14.6667 17.4365 14.6667 17.2333V10.6333C14.6667 10.4302 14.8302 10.2667 15.0333 10.2667ZM10.6333 10.2667C10.8365 10.2667 11 10.4302 11 10.6333V17.2333C11 17.4365 10.8365 17.6 10.6333 17.6C10.4302 17.6 10.2667 17.4365 10.2667 17.2333V10.6333C10.2667 10.4302 10.4302 10.2667 10.6333 10.2667ZM6.23333 10.2667C6.43647 10.2667 6.6 10.4302 6.6 10.6333V17.2333C6.6 17.4365 6.43647 17.6 6.23333 17.6C6.0302 17.6 5.86667 17.4365 5.86667 17.2333V10.6333C5.86667 10.4302 6.0302 10.2667 6.23333 10.2667ZM13.5857 0.733334C13.6811 0.733334 13.7713 0.775867 13.8373 0.843334L18.2299 5.24333C18.5541 5.56967 18.0393 6.09033 17.7115 5.76253L13.3188 1.36253C13.0827 1.12933 13.2125 0.733334 13.5857 0.733334ZM7.68093 0.733334C7.5856 0.733334 7.4954 0.775867 7.4294 0.843334L3.03673 5.24333C2.7126 5.56967 3.2274 6.09033 3.5552 5.76253L7.94787 1.36253C8.18547 1.12933 8.05493 0.733334 7.68167 0.733334H7.68093ZM1.1 6.6C0.796401 6.6 0.515535 6.71733 0.303601 6.9168C0.0909346 7.11627 -0.0527987 7.43013 0.00586794 7.76307L2.20587 20.2297C2.25133 20.4864 2.35473 20.7357 2.53807 20.9337C2.7214 21.1303 2.99713 21.2667 3.30073 21.2667H17.9674C18.271 21.2667 18.5467 21.1303 18.7301 20.933C18.9134 20.735 19.0161 20.4871 19.0615 20.229L21.2615 7.76233C21.3202 7.43013 21.1757 7.117 20.9638 6.9168C20.7504 6.71733 20.4703 6.6 20.1667 6.6H1.1ZM1.1 7.33333H20.1667C20.5333 7.33333 20.5803 7.48367 20.5392 7.63693L18.3392 20.1036C18.2512 20.4292 18.1705 20.5333 17.9667 20.5333H3.3C3.03233 20.5333 2.99933 20.372 2.92747 20.1036L0.727468 7.63693C0.682001 7.39493 0.916668 7.33333 1.1 7.33333Z" fill="white"/>
</g>
<defs>
<clipPath id="clip0_12_20">
<rect width="22" height="22" fill="white"/>
</clipPath>
</defs>
</svg>
